<svg id="visual" viewBox="0 0 900 600" width="900" height="600" xmlns="http://www.w3.org/2000/svg" xmlns:xlink="http://www.w3.org/1999/xlink" version="1.1"><rect x="0" y="0" width="900" height="600" fill="#060109"></rect><defs><linearGradient id="grad1_0" x1="33.3%" y1="0%" x2="100%" y2="100%"><stop offset="20%" stop-color="#a6081d" stop-opacity="1"></stop><stop offset="80%" stop-color="#a6081d" stop-opacity="1"></stop></linearGradient></defs><defs><linearGradient id="grad1_1" x1="33.3%" y1="0%" x2="100%" y2="100%"><stop offset="20%" stop-color="#a6081d" stop-opacity="1"></stop><stop offset="80%" stop-color="#730333" stop-opacity="1"></stop></linearGradient></defs><defs><linearGradient id="grad1_2" x1="33.3%" y1="0%" x2="100%" y2="100%"><stop offset="20%" stop-color="#38112c" stop-opacity="1"></stop><stop offset="80%" stop-color="#730333" stop-opacity="1"></stop></linearGradient></defs><defs><linearGradient id="grad1_3" x1="33.3%" y1="0%" x2="100%" y2="100%"><stop offset="20%" stop-color="#38112c" stop-opacity="1"></stop><stop offset="80%" stop-color="#060109" stop-opacity="1"></stop></linearGradient></defs><defs><linearGradient id="grad2_0" x1="0%" y1="0%" x2="66.7%" y2="100%"><stop offset="20%" stop-color="#a6081d" stop-opacity="1"></stop><stop offset="80%" stop-color="#a6081d" stop-opacity="1"></stop></linearGradient></defs><defs><linearGradient id="grad2_1" x1="0%" y1="0%" x2="66.7%" y2="100%"><stop offset="20%" stop-color="#730333" stop-opacity="1"></stop><stop offset="80%" stop-color="#a6081d" stop-opacity="1"></stop></linearGradient></defs><defs><linearGradient id="grad2_2" x1="0%" y1="0%" x2="66.7%" y2="100%"><stop offset="20%" stop-color="#730333" stop-opacity="1"></stop><stop offset="80%" stop-color="#38112c" stop-opacity="1"></stop></linearGradient></defs><defs><linearGradient id="grad2_3" x1="0%" y1="0%" x2="66.7%" y2="100%"><stop offset="20%" stop-color="#060109" stop-opacity="1"></stop><stop offset="80%" stop-color="#38112c" stop-opacity="1"></stop></linearGradient></defs><g transform="translate(900, 0)"><path d="M0 432.7C-34.6 390.3 -69.1 348 -108.2 332.9C-147.2 317.7 -190.6 329.8 -234.5 322.8C-278.4 315.8 -322.7 289.9 -350 254.3C-377.3 218.7 -387.6 173.5 -398.5 129.5C-409.4 85.5 -421 42.7 -432.7 0L0 0Z" fill="#1f0e1f"></path><path d="M0 324.5C-25.9 292.8 -51.9 261 -81.1 249.7C-110.4 238.3 -143 247.3 -175.9 242.1C-208.8 236.9 -242.1 217.4 -262.5 190.7C-283 164 -290.7 130.1 -298.9 97.1C-307.1 64.1 -315.8 32.1 -324.5 0L0 0Z" fill="#550d33"></path><path d="M0 216.3C-17.3 195.2 -34.6 174 -54.1 166.4C-73.6 158.9 -95.3 164.9 -117.3 161.4C-139.2 157.9 -161.4 145 -175 127.2C-188.7 109.4 -193.8 86.7 -199.2 64.7C-204.7 42.7 -210.5 21.4 -216.3 0L0 0Z" fill="#8e002c"></path><path d="M0 108.2C-8.6 97.6 -17.3 87 -27 83.2C-36.8 79.4 -47.7 82.4 -58.6 80.7C-69.6 79 -80.7 72.5 -87.5 63.6C-94.3 54.7 -96.9 43.4 -99.6 32.4C-102.4 21.4 -105.3 10.7 -108.2 0L0 0Z" fill="#a6081d"></path></g><g transform="translate(0, 600)"><path d="M0 -432.7C40.8 -417.7 81.7 -402.8 127.9 -393.7C174.2 -384.7 225.8 -381.5 254.3 -350C282.8 -318.5 288.1 -258.7 295.3 -214.5C302.5 -170.4 311.6 -141.9 334.8 -108.8C358 -75.6 395.3 -37.8 432.7 0L0 0Z" fill="#1f0e1f"></path><path d="M0 -324.5C30.6 -313.3 61.3 -302.1 95.9 -295.3C130.6 -288.5 169.4 -286.1 190.7 -262.5C212.1 -238.9 216.1 -194 221.5 -160.9C226.9 -127.8 233.7 -106.4 251.1 -81.6C268.5 -56.7 296.5 -28.4 324.5 0L0 0Z" fill="#550d33"></path><path d="M0 -216.3C20.4 -208.9 40.8 -201.4 64 -196.9C87.1 -192.3 112.9 -190.8 127.2 -175C141.4 -159.3 144 -129.3 147.6 -107.3C151.2 -85.2 155.8 -71 167.4 -54.4C179 -37.8 197.7 -18.9 216.3 0L0 0Z" fill="#8e002c"></path><path d="M0 -108.2C10.2 -104.4 20.4 -100.7 32 -98.4C43.5 -96.2 56.5 -95.4 63.6 -87.5C70.7 -79.6 72 -64.7 73.8 -53.6C75.6 -42.6 77.9 -35.5 83.7 -27.2C89.5 -18.9 98.8 -9.5 108.2 0L0 0Z" fill="#a6081d"></path></g></svg>