<svg id="visual" viewBox="0 0 1440 600" width="1440" height="600" xmlns="http://www.w3.org/2000/svg" xmlns:xlink="http://www.w3.org/1999/xlink" version="1.1"><rect x="0" y="0" width="1440" height="600" fill="#100715"></rect><path d="M0 366L206 361L411 356L617 261L823 338L1029 325L1234 359L1440 402L1440 0L1234 0L1029 0L823 0L617 0L411 0L206 0L0 0Z" fill="#1f0e1f"></path><path d="M0 342L206 208L411 262L617 298L823 268L1029 298L1234 253L1440 313L1440 0L1234 0L1029 0L823 0L617 0L411 0L206 0L0 0Z" fill="#3f102f"></path><path d="M0 203L206 219L411 264L617 242L823 150L1029 159L1234 150L1440 211L1440 0L1234 0L1029 0L823 0L617 0L411 0L206 0L0 0Z" fill="#640834"></path><path d="M0 137L206 172L411 149L617 173L823 132L1029 111L1234 139L1440 149L1440 0L1234 0L1029 0L823 0L617 0L411 0L206 0L0 0Z" fill="#88002e"></path><path d="M0 77L206 104L411 84L617 108L823 112L1029 60L1234 109L1440 97L1440 0L1234 0L1029 0L823 0L617 0L411 0L206 0L0 0Z" fill="#a6081d"></path></svg>