<svg id="visual" viewBox="0 0 1440 400" width="1440" height="400" xmlns="http://www.w3.org/2000/svg" xmlns:xlink="http://www.w3.org/1999/xlink" version="1.1"><rect x="0" y="0" width="1440" height="400" fill="#100715"></rect><path d="M841 400L826.8 377.8C812.7 355.7 784.3 311.3 776 266.8C767.7 222.3 779.3 177.7 774.2 133.2C769 88.7 747 44.3 736 22.2L725 0L1440 0L1440 22.2C1440 44.3 1440 88.7 1440 133.2C1440 177.7 1440 222.3 1440 266.8C1440 311.3 1440 355.7 1440 377.8L1440 400Z" fill="#1f0e1f"></path><path d="M987 400L989.3 377.8C991.7 355.7 996.3 311.3 991.3 266.8C986.3 222.3 971.7 177.7 945.3 133.2C919 88.7 881 44.3 862 22.2L843 0L1440 0L1440 22.2C1440 44.3 1440 88.7 1440 133.2C1440 177.7 1440 222.3 1440 266.8C1440 311.3 1440 355.7 1440 377.8L1440 400Z" fill="#3f102f"></path><path d="M1067 400L1059.5 377.8C1052 355.7 1037 311.3 1040.7 266.8C1044.3 222.3 1066.7 177.7 1059.3 133.2C1052 88.7 1015 44.3 996.5 22.2L978 0L1440 0L1440 22.2C1440 44.3 1440 88.7 1440 133.2C1440 177.7 1440 222.3 1440 266.8C1440 311.3 1440 355.7 1440 377.8L1440 400Z" fill="#640834"></path><path d="M1110 400L1121.3 377.8C1132.7 355.7 1155.3 311.3 1175.8 266.8C1196.3 222.3 1214.7 177.7 1220.5 133.2C1226.3 88.7 1219.7 44.3 1216.3 22.2L1213 0L1440 0L1440 22.2C1440 44.3 1440 88.7 1440 133.2C1440 177.7 1440 222.3 1440 266.8C1440 311.3 1440 355.7 1440 377.8L1440 400Z" fill="#88002e"></path><path d="M1229 400L1250.5 377.8C1272 355.7 1315 311.3 1315.2 266.8C1315.3 222.3 1272.7 177.7 1258.3 133.2C1244 88.7 1258 44.3 1265 22.2L1272 0L1440 0L1440 22.2C1440 44.3 1440 88.7 1440 133.2C1440 177.7 1440 222.3 1440 266.8C1440 311.3 1440 355.7 1440 377.8L1440 400Z" fill="#a6081d"></path></svg>