<svg width="36" height="36" viewBox="0 0 36 36" fill="none" xmlns="http://www.w3.org/2000/svg">
<path d="M18 2.25C16.7574 2.25 15.75 3.25736 15.75 4.5L15.75 17.068L12.091 13.409C11.2123 12.5303 9.78769 12.5303 8.90901 13.409C8.03033 14.2877 8.03033 15.7123 8.90901 16.591L16.409 24.091C17.2877 24.9697 18.7123 24.9697 19.591 24.091L27.091 16.591C27.9697 15.7123 27.9697 14.2877 27.091 13.409C26.2123 12.5303 24.7877 12.5303 23.909 13.409L20.25 17.068L20.25 4.5C20.25 3.25736 19.2426 2.25 18 2.25Z" fill="white"/>
<path d="M7.5 21.75C6.25736 21.75 5.25 22.7574 5.25 24V28.5C5.25 31.3995 7.60051 33.75 10.5 33.75H25.5C28.3995 33.75 30.75 31.3995 30.75 28.5V24C30.75 22.7574 29.7426 21.75 28.5 21.75C27.2574 21.75 26.25 22.7574 26.25 24V28.5C26.25 28.9142 25.9142 29.25 25.5 29.25H10.5C10.0858 29.25 9.75 28.9142 9.75 28.5V24C9.75 22.7574 8.74264 21.75 7.5 21.75Z" fill="white"/>
</svg>
